# xmcd CD database file
#
# Track frame offsets:
#	150
#	18558
#	33190
#	45618
#	67457
#	93723
#	108256
#	119966
#	139922
#	158967
#	171225
#	184060
#	195382
#	209857
#	234433
#	260641
#	281598
#	299672
#	313748
#	328419
#
# Disc length: 4684 seconds
#
# Revision: 1
# Processed by: cddbd v1.5.2PL0 Copyright (c) Steve Scherf et al.
# Submitted via: CDex 1.51
#
DISCID=4d124a14
DTITLE=Various Artist - ZM-TPMH-Disc-7
DYEAR=1900
DGENRE=Blues
TTITLE0=Cliff Richard - Miss You Nights
TTITLE1=Elvis Presley - Moody Blues
TTITLE2=Cliff Richard - Move It
TTITLE3=Billy Joel - My Life
TTITLE4=Elton John - Nikita
TTITLE5=Roy Orbison - Oh Pretty Woman
TTITLE6=Cliff Richard - On The Beach
TTITLE7=Michael Jackson - One Day In Your Life
TTITLE8=Phil Collins - One More Night
TTITLE9=Elvis Presley - One Night
TTITLE10=Barry Manilow - One Voice
TTITLE11=Roy Orbison - Only The Lonely
TTITLE12=Roy Orbison - Penny Arcade
TTITLE13=Elton John - Philadelphia Freedom
TTITLE14=Billy Joel - Piano Man
TTITLE15=Elton John - Pinball Wizard
TTITLE16=Neil Diamond - Play Me
TTITLE17=Cliff Richard - Please Don't Tease
TTITLE18=Cliff Richard - Power To All My Friends
TTITLE19=Neil Diamond - Pretty Amazing Grace
EXTD=
EXTT0=
EXTT1=
EXTT2=
EXTT3=
EXTT4=
EXTT5=
EXTT6=
EXTT7=
EXTT8=
EXTT9=
EXTT10=
EXTT11=
EXTT12=
EXTT13=
EXTT14=
EXTT15=
EXTT16=
EXTT17=
EXTT18=
EXTT19=
PLAYORDER=
